<?xml version="1.0" standalone="no"?>
<!DOCTYPE svg PUBLIC "-//W3C//DTD SVG 20010904//EN"
 "http://www.w3.org/TR/2001/REC-SVG-20010904/DTD/svg10.dtd">
<svg version="1.0" xmlns="http://www.w3.org/2000/svg"
 width="658.000000pt" height="658.000000pt" viewBox="0 0 658.000000 658.000000"
 preserveAspectRatio="xMidYMid meet">
<metadata>
Created by potrace 1.14, written by Peter Selinger 2001-2017
</metadata>
<g transform="translate(0.000000,658.000000) scale(0.100000,-0.100000)"
fill="#000000" stroke="none">
<path d="M3205 6573 c-33 -1 -121 -7 -195 -13 -632 -52 -1230 -288 -1750 -691
-120 -93 -386 -353 -490 -479 -391 -473 -642 -1041 -725 -1645 -64 -464 -28
-940 105 -1382 190 -630 555 -1180 1067 -1605 182 -151 493 -345 705 -440 623
-279 1290 -363 1948 -247 481 85 970 295 1365 588 255 189 510 443 692 691
292 398 490 852 583 1335 149 783 2 1611 -407 2292 -258 427 -577 763 -988
1038 -395 264 -813 433 -1265 509 -200 34 -491 56 -645 49z m436 -208 c581
-65 1128 -296 1609 -679 99 -78 357 -339 444 -446 93 -117 248 -351 324 -493
123 -225 246 -566 297 -820 38 -194 56 -348 62 -553 14 -448 -70 -882 -250
-1304 l-45 -105 -92 -1 c-109 -2 -167 -21 -210 -71 l-31 -35 -67 30 c-96 44
-141 53 -253 53 -171 -1 -296 -48 -400 -152 -66 -66 -101 -133 -107 -206 -2
-29 -8 -53 -12 -53 -4 0 -21 7 -39 16 -50 25 -155 36 -225 23 -225 -40 -399
-277 -401 -545 l0 -91 -43 -12 c-80 -21 -178 -146 -234 -297 -18 -50 -21 -81
-22 -206 l-1 -146 -135 -21 c-228 -36 -318 -43 -520 -43 -171 0 -453 22 -467
36 -3 2 10 12 27 21 47 24 205 179 256 251 49 69 121 215 154 312 27 83 43
203 38 301 -4 94 2 94 78 6 26 -30 54 -55 61 -55 19 0 39 38 53 100 19 84 25
90 47 44 14 -30 24 -39 43 -39 21 0 31 12 66 81 88 176 241 327 394 389 34 14
69 18 147 17 81 -1 102 2 107 13 10 27 -4 41 -80 85 -41 23 -73 48 -71 54 7
22 155 117 282 180 231 115 409 161 590 153 115 -5 166 -19 199 -56 22 -24 54
-28 62 -6 3 8 -4 40 -16 72 -13 35 -24 92 -28 142 l-5 85 44 -37 c66 -53 184
-106 289 -127 62 -13 160 -21 294 -26 165 -5 209 -10 245 -25 58 -25 75 -11
34 29 -43 43 -85 52 -303 62 -298 14 -438 58 -553 176 -75 77 -100 72 -112
-26 -4 -30 -2 -91 4 -134 6 -44 10 -81 8 -82 -2 -2 -39 3 -83 12 -224 44 -599
-70 -905 -274 -138 -93 -159 -133 -93 -177 l31 -21 -68 -18 c-79 -20 -165 -70
-250 -145 -72 -63 -172 -187 -202 -248 -12 -24 -23 -43 -26 -43 -4 0 -14 18
-23 41 -15 35 -21 40 -45 37 -26 -3 -31 -11 -59 -94 l-30 -91 -49 43 c-26 24
-57 44 -68 46 -14 2 -25 21 -41 74 -29 90 -75 157 -124 181 l-39 18 5 110 c6
147 -10 236 -61 338 -51 102 -139 191 -236 240 -103 52 -269 70 -367 42 -19
-6 -22 -1 -28 35 -10 63 -55 147 -104 197 -48 47 -157 103 -242 124 -86 21
-279 16 -373 -9 -95 -26 -221 -90 -282 -144 -46 -41 -46 -41 -61 -20 -41 58
-175 99 -289 89 -192 -18 -449 -218 -574 -447 l-29 -52 -40 104 c-313 799
-293 1640 57 2425 90 203 251 465 401 653 98 122 319 347 440 447 105 86 255
192 380 267 97 59 391 208 397 202 2 -2 -7 -20 -20 -39 -28 -41 -52 -120 -44
-142 9 -22 34 -18 64 9 15 14 48 37 75 51 l50 27 -17 -32 c-22 -43 -31 -170
-16 -252 20 -118 91 -301 139 -358 29 -34 49 -20 76 55 12 33 27 69 34 80 10
18 11 17 12 -15 1 -137 119 -339 253 -433 118 -85 337 -191 337 -164 0 6 -7
49 -16 96 -66 349 115 747 461 1017 49 39 55 46 31 40 -70 -17 -223 -137 -301
-237 -71 -90 -173 -274 -201 -363 -55 -176 -67 -366 -31 -488 l15 -46 -47 25
c-126 70 -283 209 -350 308 -81 121 -95 169 -95 313 0 67 -3 122 -7 122 -12 0
-87 -123 -120 -195 l-31 -70 -23 45 c-68 134 -113 332 -100 434 7 53 31 113
62 156 18 23 18 24 -2 16 -11 -5 -45 -16 -75 -26 -30 -9 -70 -24 -87 -34 -40
-20 -41 -13 -4 46 49 77 77 95 206 137 278 90 516 135 820 155 99 6 354 -4
496 -19z m-1593 -3800 c75 -18 157 -56 207 -97 43 -36 79 -103 101 -193 l17
-67 36 6 c306 53 533 -69 618 -333 22 -69 27 -251 10 -346 -8 -44 -12 -82 -10
-84 1 -3 14 6 27 19 l25 22 33 -19 c76 -44 118 -180 118 -381 0 -152 -17 -233
-78 -364 -53 -115 -102 -187 -187 -277 -77 -81 -224 -191 -255 -191 -11 0 -88
18 -172 39 -437 112 -842 313 -1191 595 -125 99 -334 307 -445 440 -118 143
-291 408 -382 587 l-21 41 31 65 c85 184 269 364 441 434 41 17 75 22 139 22
109 1 179 -21 219 -70 l29 -35 73 50 c120 81 224 124 349 145 60 10 210 5 268
-8z m3981 -674 c10 -7 0 -32 -49 -117 -78 -135 -197 -312 -287 -424 -86 -108
-342 -365 -453 -453 -255 -204 -558 -378 -855 -490 -141 -53 -365 -120 -374
-111 -3 3 -5 54 -5 113 2 123 19 193 71 293 46 89 94 142 145 163 41 16 42 16
60 -7 17 -23 18 -21 18 80 0 267 92 453 268 539 70 35 80 37 161 36 59 -1 104
-7 145 -22 32 -11 62 -19 66 -16 5 3 11 24 15 48 22 132 105 241 229 302 83
41 149 55 256 55 90 0 161 -19 251 -67 69 -37 99 -38 99 -5 0 27 41 61 91 77
50 16 128 19 148 6z"/>
<path d="M4616 5455 c-158 -33 -314 -103 -439 -197 -86 -64 -202 -179 -266
-264 l-51 -67 0 -81 c0 -207 68 -430 183 -601 54 -80 178 -208 250 -257 146
-100 299 -148 466 -148 151 0 252 29 390 112 50 30 66 36 74 26 6 -10 7 -8 4
4 -4 11 7 29 33 52 212 192 323 531 279 853 -12 89 -80 345 -105 399 -10 20
-31 44 -47 54 -39 24 -221 84 -317 105 -105 23 -364 29 -454 10z m765 -283
c10 -13 25 -45 34 -73 16 -47 16 -51 -1 -70 -9 -10 -42 -31 -73 -46 -100 -49
-241 -34 -293 31 -46 56 -3 133 92 167 78 28 215 22 241 -9z m-328 -240 c45
-40 -20 -102 -107 -102 -84 0 -119 40 -78 89 33 40 146 48 185 13z m316 -327
c46 -8 86 -17 89 -20 9 -8 -18 -115 -49 -195 -61 -160 -189 -312 -326 -386
-124 -68 -188 -85 -318 -87 -123 -2 -185 11 -290 57 -102 44 -170 90 -246 166
-63 63 -129 145 -129 160 0 4 31 28 69 54 l69 48 73 -75 c107 -108 195 -147
335 -147 130 0 235 45 325 140 66 71 107 149 120 233 6 34 12 67 14 73 3 12
131 2 264 -21z"/>
<path d="M4017 5273 c-113 -60 -211 -159 -187 -187 9 -12 22 -4 68 43 31 31
88 85 125 119 37 34 66 62 65 62 -2 0 -33 -17 -71 -37z"/>
<path d="M2050 4977 c0 -9 277 -157 293 -157 24 0 21 23 -5 47 -34 31 -94 58
-183 83 -43 12 -85 24 -92 27 -7 3 -13 3 -13 0z"/>
<path d="M1470 4933 c-71 -7 -197 -35 -275 -60 -91 -29 -308 -130 -344 -160
-28 -23 -52 -103 -81 -273 -43 -249 -12 -468 96 -680 58 -113 134 -212 214
-278 104 -86 106 -87 113 -90 4 -2 37 -17 73 -33 195 -89 435 -92 627 -10 142
61 306 207 390 348 99 166 136 295 144 503 4 129 2 159 -21 271 -30 152 -63
227 -115 263 -55 38 -249 123 -348 152 -151 43 -333 62 -473 47z m807 -349
c30 -23 56 -88 47 -118 -17 -56 -106 -106 -188 -106 -87 0 -166 52 -166 108 0
41 38 92 90 120 39 20 55 23 118 19 52 -3 81 -10 99 -23z m-332 -229 c14 -13
25 -29 25 -35 0 -6 -11 -22 -25 -35 -31 -32 -96 -34 -125 -5 -32 32 -25 58 25
84 42 22 72 20 100 -9z m-675 -342 c20 -76 69 -160 126 -216 173 -173 456
-172 634 2 63 62 95 117 119 202 l16 56 73 -17 c40 -10 78 -22 83 -27 14 -14
-4 -80 -51 -180 -137 -295 -392 -469 -685 -468 -281 2 -536 179 -674 468 -50
106 -48 114 29 144 76 29 302 92 311 87 3 -2 12 -25 19 -51z"/>
<path d="M3050 4230 c-12 -7 -8 -10 15 -10 17 0 37 5 45 10 12 7 8 10 -15 10
-16 0 -37 -5 -45 -10z"/>
<path d="M3086 4177 c-42 -13 -61 -37 -28 -37 23 0 152 39 152 45 0 9 -86 3
-124 -8z"/>
<path d="M3205 4133 c-93 -8 -254 -57 -269 -81 -13 -21 13 -21 70 -1 33 11
115 34 184 51 69 17 127 32 129 34 5 4 -49 3 -114 -3z"/>
<path d="M3242 4049 c-159 -20 -392 -110 -392 -150 0 -14 21 -9 145 35 55 19
177 55 270 80 167 43 169 44 105 44 -36 0 -93 -4 -128 -9z"/>
<path d="M3269 3980 c-213 -19 -422 -110 -459 -199 -10 -26 -10 -35 4 -55 19
-30 132 -68 269 -92 l90 -16 73 36 c82 41 241 160 273 205 40 56 17 105 -58
122 -41 10 -70 9 -192 -1z m95 -86 c9 -3 16 -17 16 -30 0 -28 -33 -46 -65 -34
-13 5 -24 2 -31 -8 -14 -20 -47 -8 -42 15 2 11 12 18 26 17 12 0 22 4 22 11 0
28 38 43 74 29z"/>
<path d="M4170 3765 c-10 -11 -3 -22 35 -60 44 -42 47 -49 42 -82 -8 -46 -36
-76 -99 -103 -101 -43 -181 -51 -538 -53 l-335 -1 -16 44 c-31 83 -63 55 -35
-31 9 -27 14 -54 11 -60 -15 -23 -227 -164 -300 -199 -181 -87 -383 -82 -430
10 -15 28 -14 34 4 75 18 40 18 46 5 60 -22 21 -26 20 -73 -22 -26 -24 -44
-50 -48 -71 -5 -31 -1 -37 58 -92 41 -38 81 -66 111 -76 32 -10 67 -35 111
-78 35 -35 74 -65 86 -69 33 -8 58 23 72 92 l13 59 70 29 c39 15 74 29 78 31
4 2 -6 -25 -21 -60 -41 -90 -62 -202 -62 -330 0 -128 11 -197 52 -321 65 -200
186 -351 340 -425 46 -22 112 -46 147 -53 82 -15 237 -6 319 19 179 56 303
211 339 422 30 180 3 339 -110 639 -71 188 -113 328 -101 339 2 3 26 7 52 9
47 5 49 4 108 -56 56 -58 84 -71 111 -53 20 13 54 91 61 139 5 39 16 59 56
103 53 60 67 86 67 130 0 47 -11 61 -64 86 -58 27 -98 30 -116 9z m14 -327
c-9 -45 -36 -98 -48 -98 -11 0 -86 70 -86 80 0 4 24 12 53 19 28 6 59 16 67
21 22 14 22 13 14 -22z m-450 -37 l99 -6 14 -68 c8 -38 45 -150 82 -250 80
-212 105 -295 120 -394 51 -338 -96 -600 -360 -642 -209 -34 -363 11 -500 148
-62 62 -85 94 -122 171 -72 148 -100 267 -100 425 0 147 16 236 63 350 31 72
32 74 153 164 67 50 129 91 138 91 14 0 15 -7 6 -52 -13 -74 -1 -297 22 -399
24 -108 130 -389 146 -389 2 0 -5 33 -16 73 -55 210 -99 496 -99 640 0 103 8
135 34 140 32 6 208 5 320 -2z m-940 -323 c-15 -49 -24 -68 -32 -68 -5 0 -28
17 -52 38 l-44 37 49 6 c90 11 87 11 79 -13z"/>
<path d="M3331 661 c-9 -6 -10 -19 -6 -45 7 -37 7 -37 -19 -25 -14 7 -29 9
-32 6 -13 -13 6 -37 33 -43 48 -10 53 -13 53 -30 0 -14 -7 -16 -36 -11 -23 4
-47 1 -64 -8 -45 -23 -52 -63 -21 -123 40 -77 101 -115 206 -126 151 -17 271
82 251 206 -15 95 -72 121 -162 74 -29 -16 -58 -25 -65 -20 -9 5 -10 0 -6 -19
6 -21 4 -24 -11 -21 -15 4 -17 -3 -17 -64 0 -83 12 -102 65 -102 41 0 70 24
70 58 0 29 -17 28 -46 -3 -13 -14 -29 -25 -37 -25 -23 0 -39 26 -35 57 3 25 7
28 42 28 47 0 59 20 16 28 -16 4 -30 11 -30 17 0 7 9 9 23 5 24 -8 25 -8 45
-6 24 2 11 21 -15 21 l-28 1 24 19 c60 50 121 6 121 -87 0 -49 -4 -57 -41 -98
-48 -52 -101 -68 -176 -54 -82 16 -135 48 -162 100 -24 45 -24 47 -7 73 24 37
62 54 87 38 28 -18 42 -5 36 34 -5 30 -3 33 21 36 40 5 36 34 -4 30 -29 -3
-32 -1 -38 37 -7 44 -15 54 -35 42z"/>
<path d="M3363 431 c-24 -21 -43 -43 -43 -48 0 -13 82 -73 91 -67 17 10 9 22
-27 44 l-35 22 23 16 c29 19 48 42 48 59 0 20 -12 15 -57 -26z"/>
</g>
</svg>
